<svg width="32" height="32" viewBox="0 0 32 32" fill="none" xmlns="http://www.w3.org/2000/svg">
<path d="M11.5419 25.7291C11.3194 25.7705 11.2222 25.875 11.2501 26.0415C11.2778 26.2081 11.4028 26.2637 11.625 26.2081C11.8475 26.1526 11.9446 26.0552 11.9167 25.9164C11.8891 25.7638 11.7641 25.7011 11.5419 25.7291Z" fill="#44BD32"/>
<path d="M10.3544 25.8959C10.1321 25.8959 10.021 25.9719 10.021 26.125C10.021 26.3055 10.1392 26.3817 10.3752 26.354C10.5974 26.354 10.7086 26.2776 10.7086 26.125C10.7086 25.9447 10.5905 25.868 10.3544 25.8959Z" fill="#44BD32"/>
<path d="M8.72938 25.8329C8.67393 25.9858 8.76426 26.0897 9.00018 26.1455C9.20851 26.2285 9.34051 26.187 9.39597 26.0205C9.43771 25.8679 9.34737 25.757 9.12518 25.6871C8.91677 25.6318 8.78492 25.6797 8.72938 25.8329Z" fill="#44BD32"/>
<path d="M30.2396 1.76025C29.0659 0.586824 27.6531 0 25.9999 0H5.99998C4.34735 0 2.93399 0.586824 1.76026 1.76025C0.586827 2.9339 0 4.34725 0 5.99995V26.0001C0 27.6529 0.586827 29.0661 1.76026 30.2395C2.93391 31.4132 4.34735 32 5.99998 32H10.6666C10.9719 32 11.2013 31.9895 11.354 31.9691C11.5067 31.948 11.6593 31.8577 11.8122 31.6978C11.9651 31.5382 12.0413 31.3055 12.0413 31.0001C12.0413 30.9586 12.0377 30.4859 12.0308 29.5832C12.0237 28.6802 12.0203 27.9651 12.0203 27.4372L11.5411 27.5206C11.2356 27.5761 10.8502 27.6005 10.3848 27.5935C9.91972 27.5865 9.43695 27.538 8.93703 27.4477C8.43682 27.3573 7.97171 27.149 7.54111 26.8229C7.11073 26.4962 6.8052 26.0693 6.6246 25.5417L6.4162 25.0622C6.27734 24.7431 6.05872 24.3887 5.76005 24.0002C5.46138 23.6111 5.15936 23.3472 4.85383 23.2083L4.70797 23.1041C4.61084 23.0347 4.52058 22.951 4.43717 22.8539C4.35391 22.7565 4.29145 22.6591 4.24979 22.5622C4.20812 22.4648 4.24271 22.3849 4.35391 22.3222C4.46512 22.2598 4.6663 22.2289 4.95811 22.2289L5.37462 22.2913C5.65249 22.3467 5.99604 22.5133 6.40598 22.7912C6.81564 23.0689 7.1524 23.43 7.41633 23.8743C7.73594 24.4439 8.121 24.8776 8.57262 25.1763C9.02386 25.4753 9.47883 25.6245 9.93709 25.6245C10.3953 25.6245 10.7911 25.5898 11.1246 25.5206C11.4577 25.451 11.7702 25.3466 12.0621 25.2077C12.187 24.2773 12.5274 23.5616 13.0828 23.0617C12.2912 22.9783 11.5794 22.8534 10.9473 22.6866C10.3155 22.5198 9.66264 22.2492 8.98913 21.874C8.31532 21.499 7.75637 21.034 7.31191 20.4781C6.86752 19.9222 6.50281 19.1931 6.2183 18.2906C5.93365 17.3876 5.79128 16.3458 5.79128 15.1654C5.79128 13.485 6.34009 12.0542 7.43727 10.8738C6.92327 9.60992 6.97179 8.19343 7.58299 6.62384C7.98579 6.49877 8.58312 6.59261 9.3747 6.90514C10.1664 7.21789 10.7461 7.48533 11.1143 7.70723C11.4825 7.9292 11.7775 8.11688 11.9998 8.26982C13.2917 7.9087 14.625 7.72817 15.9999 7.72817C17.3747 7.72817 18.7082 7.9087 20.0002 8.26982L20.7918 7.76983C21.3337 7.43636 21.9725 7.13084 22.7087 6.85319C23.4448 6.57546 24.0072 6.49899 24.3963 6.62406C25.0211 8.19364 25.0769 9.61014 24.5626 10.8739C25.6598 12.0545 26.2087 13.4852 26.2087 15.1656C26.2087 16.3463 26.0664 17.3916 25.7817 18.3011C25.4973 19.2108 25.1294 19.9402 24.6777 20.4888C24.2264 21.0374 23.6638 21.4989 22.9903 21.8742C22.3166 22.249 21.6638 22.5202 21.0318 22.6865C20.3998 22.8533 19.6881 22.9787 18.8964 23.0621C19.6182 23.6868 19.9792 24.6727 19.9792 26.0201V30.9994C19.9792 31.2356 20.0137 31.4265 20.0832 31.5723C20.1531 31.7181 20.264 31.8185 20.4167 31.8745C20.5701 31.9299 20.7049 31.9646 20.8232 31.9784C20.9416 31.9923 21.1114 31.9993 21.3336 31.9993H26.0003C27.6529 31.9993 29.0664 31.4125 30.2395 30.2389C31.4132 29.0652 32 27.6518 32 25.9992V5.99995C31.9999 4.34725 31.413 2.93368 30.2396 1.76025Z" fill="#44BD32"/>
<path d="M6.33329 23.2917C6.23617 23.3608 6.25003 23.472 6.37503 23.6248C6.51411 23.7636 6.6251 23.7845 6.70851 23.6872C6.80563 23.618 6.79176 23.5068 6.66655 23.3538C6.52776 23.229 6.4167 23.208 6.33329 23.2917Z" fill="#44BD32"/>
<path d="M5.64598 22.7708C5.60438 22.8682 5.65298 22.9516 5.79184 23.0208C5.90283 23.0905 5.99339 23.0767 6.06264 22.9793C6.10423 22.8819 6.05563 22.7985 5.91677 22.7288C5.77791 22.6871 5.68764 22.7011 5.64598 22.7708Z" fill="#44BD32"/>
<path d="M6.97933 24.1042C6.85418 24.1734 6.85418 24.2988 6.97933 24.4791C7.10432 24.6599 7.22217 24.7083 7.33345 24.6249C7.45852 24.5275 7.45852 24.3956 7.33345 24.2289C7.22246 24.0488 7.10432 24.0066 6.97933 24.1042Z" fill="#44BD32"/>
<path d="M7.70865 25.0414C7.58358 25.1528 7.61116 25.2842 7.79198 25.4375C7.95843 25.6038 8.09736 25.6247 8.2085 25.4994C8.3197 25.3886 8.2919 25.2567 8.12516 25.1039C7.95872 24.9376 7.81978 24.9165 7.70865 25.0414Z" fill="#44BD32"/>
</svg>
