<svg width="32" height="32" viewBox="0 0 32 32" fill="none" xmlns="http://www.w3.org/2000/svg">
<g clip-path="url(#clip0_1_52)">
<path d="M23.3379 0H8.66211C3.88574 0 0 3.88574 0 8.66211V23.3381C0 28.1143 3.88574 32 8.66211 32H23.3381C28.1143 32 32 28.1143 32 23.3381V8.66211C32 3.88574 28.1143 0 23.3379 0ZM30.124 23.3381C30.124 27.0798 27.0798 30.124 23.3379 30.124H8.66211C4.92017 30.124 1.87598 27.0798 1.87598 23.3381V8.66211C1.87598 4.92017 4.92017 1.87598 8.66211 1.87598H23.3381C27.0798 1.87598 30.124 4.92017 30.124 8.66211V23.3381Z" fill="#44BD32"/>
<path d="M16 7.25024C11.1753 7.25024 7.25024 11.1753 7.25024 16C7.25024 20.8247 11.1753 24.7498 16 24.7498C20.8247 24.7498 24.7498 20.8247 24.7498 16C24.7498 11.1753 20.8247 7.25024 16 7.25024ZM16 22.8738C12.21 22.8738 9.12622 19.7903 9.12622 16C9.12622 12.21 12.21 9.12622 16 9.12622C19.7903 9.12622 22.8738 12.21 22.8738 16C22.8738 19.7903 19.7903 22.8738 16 22.8738Z" fill="#44BD32"/>
<path d="M24.9589 4.14282C23.5331 4.14282 22.3735 5.30273 22.3735 6.72827C22.3735 8.15405 23.5331 9.31396 24.9589 9.31396C26.3847 9.31396 27.5446 8.15405 27.5446 6.72827C27.5446 5.30249 26.3847 4.14282 24.9589 4.14282ZM24.9589 7.43774C24.5678 7.43774 24.2495 7.11938 24.2495 6.72827C24.2495 6.33691 24.5678 6.0188 24.9589 6.0188C25.3503 6.0188 25.6686 6.33691 25.6686 6.72827C25.6686 7.11938 25.3503 7.43774 24.9589 7.43774Z" fill="#44BD32"/>
</g>
<defs>
<clipPath id="clip0_1_52">
<rect width="32" height="32" fill="white"/>
</clipPath>
</defs>
</svg>
