<svg width="50" height="50" viewBox="0 0 50 50" fill="none" xmlns="http://www.w3.org/2000/svg">
<g clip-path="url(#clip0_2_2)">
<path d="M43.7223 9.55009L29.0241 1.07343C26.5421 -0.35802 23.458 -0.357922 20.9759 1.07343L6.27783 9.55009C3.79092 10.9842 2.24609 13.6587 2.24609 16.5298V33.4699C2.24609 36.341 3.79092 39.0155 6.27773 40.4496L20.9759 48.9263C23.4584 50.358 26.5424 50.3575 29.0241 48.9263L43.7222 40.4496C46.2091 39.0155 47.7539 36.341 47.7539 33.4699V16.5298C47.7539 13.6588 46.2091 10.9843 43.7223 9.55009ZM43.8477 33.4699C43.8477 34.9488 43.052 36.3265 41.7709 37.0651L27.0728 45.5418C25.7941 46.2793 24.2058 46.2793 22.9271 45.5418L8.229 37.0651C6.94805 36.3264 6.15234 34.9488 6.15234 33.4699V16.5298C6.15234 15.051 6.94805 13.6733 8.2291 12.9347L22.9271 4.458C24.2059 3.7205 25.7947 3.72079 27.0729 4.458L41.771 12.9346C43.052 13.6733 43.8477 15.0509 43.8477 16.5298V33.4699Z" fill="#44BD32"/>
<path d="M23.1439 23.5087L15.8899 17.3697C15.0666 16.6728 13.8341 16.7755 13.1373 17.5991C12.4405 18.4227 12.5433 19.6553 13.3667 20.3521L18.8587 25L13.3667 29.6477C12.5433 30.3446 12.4406 31.5771 13.1373 32.4008C13.8357 33.2262 15.0686 33.3253 15.8899 32.6301L23.1439 26.4911C24.0668 25.7101 24.0642 24.2875 23.1439 23.5087Z" fill="#44BD32"/>
<path d="M35.3717 29.1855H26.5831C25.5044 29.1855 24.63 30.06 24.63 31.1389C24.63 32.2178 25.5044 33.0923 26.5831 33.0923H35.3717C36.4503 33.0923 37.3248 32.2178 37.3248 31.1389C37.3248 30.06 36.4504 29.1855 35.3717 29.1855Z" fill="#44BD32"/>
</g>
<defs>
<clipPath id="clip0_2_2">
<rect width="50" height="50" fill="white"/>
</clipPath>
</defs>
</svg>
